HIERARCHY
ROOT Hips
{
  OFFSET -69.4423 88.0299 51.6846
  CHANNELS 6 Xposition Yposition Zposition Zrotation Xrotation Yrotation
  JOINT Spine
  {
    OFFSET 12.0259 -0.162853 1.93176e-005
    CHANNELS 3 Zrotation Xrotation Yrotation
    JOINT Spine1
    {
      OFFSET 15.3169 -0.0121909 0
      CHANNELS 3 Zrotation Xrotation Yrotation
      JOINT Spine2
      {
        OFFSET 15.3176 -0.0121922 0
        CHANNELS 3 Zrotation Xrotation Yrotation
        JOINT Neck
        {
          OFFSET 19.9142 1.56236 0
          CHANNELS 3 Zrotation Xrotation Yrotation
          JOINT Head
          {
            OFFSET 6.92646 0 0
            CHANNELS 3 Zrotation Xrotation Yrotation
            End Site
            {
              OFFSET 20.7666 0 0
            }
          }
          JOINT LeftShoulder
          {
            OFFSET -4.94072 -1.14703 8.14416
            CHANNELS 3 Zrotation Xrotation Yrotation
            JOINT LeftArm
            {
              OFFSET 14.108 0 -2.74767e-005
              CHANNELS 3 Zrotation Xrotation Yrotation
              JOINT LeftForeArm
              {
                OFFSET 28.5802 -0.0783412 -0.0284884
                CHANNELS 3 Zrotation Xrotation Yrotation
                JOINT LeftHand
                {
                  OFFSET 27.092 0 0
                  CHANNELS 3 Zrotation Xrotation Yrotation
                  End Site
                  {
                    OFFSET 9.55928 -0.186424 0.145352
                  }
                }
              }
            }
          }
          JOINT RightShoulder
          {
            OFFSET -7.15748 -1.33027 -6.24935
            CHANNELS 3 Zrotation Xrotation Yrotation
            JOINT RightArm
            {
              OFFSET 14.108 0 1.82997e-005
              CHANNELS 3 Zrotation Xrotation Yrotation
              JOINT RightForeArm
              {
                OFFSET 28.5802 -0.0707221 2.30684e-005
                CHANNELS 3 Zrotation Xrotation Yrotation
                JOINT RightHand
                {
                  OFFSET 27.092 0 -1.30073e-005
                  CHANNELS 3 Zrotation Xrotation Yrotation
                  End Site
                  {
                    OFFSET 9.55929 -0.186417 -0.145354
                  }
                }
              }
            }
          }
        }
      }
    }
  }
  JOINT LeftUpLeg
  {
    OFFSET 0.00499725 -0.534999 8.837
    CHANNELS 3 Zrotation Xrotation Yrotation
    JOINT LeftLeg
    {
      OFFSET 39.9035 -0.00124594 0.000252775
      CHANNELS 3 Zrotation Xrotation Yrotation
      JOINT LeftFoot
      {
        OFFSET 39.6689 0 0
        CHANNELS 3 Zrotation Xrotation Yrotation
        JOINT LeftToe
        {
          OFFSET 10.1624 13.6296 0
          CHANNELS 3 Zrotation Xrotation Yrotation
          End Site
          {
            OFFSET 8.38147 0 0
          }
        }
      }
    }
  }
  JOINT RightUpLeg
  {
    OFFSET 0.00499725 -0.535 -8.837
    CHANNELS 3 Zrotation Xrotation Yrotation
    JOINT RightLeg
    {
      OFFSET 39.9036 -0.000268477 0.000106433
      CHANNELS 3 Zrotation Xrotation Yrotation
      JOINT RightFoot
      {
        OFFSET 39.6689 1.17892e-005 0
        CHANNELS 3 Zrotation Xrotation Yrotation
        JOINT RightToe
        {
          OFFSET 10.1624 13.6296 0
          CHANNELS 3 Zrotation Xrotation Yrotation
          End Site
          {
            OFFSET 8.38147 0 0
          }
        }
      }
    }
  }
}
MOTION
Frames:	10
Frame Time:	0.0333333
25.5575 88.3815 54.8055 -95.47 -42.8333 175.466 2.15103 3.0856 -1.44754 4.38898 6.11398 -3.01655 4.38897 6.11399 -3.01658 -10.7773 9.11961 -3.7741 71.4839 18.7874 -18.0944 -169.939 10.0288 -88.9554 -14.5941 8.39656 86.3396 -23.9441 2.6579 -15.2068 10.7617 -83.7655 13.1927 -169.822 8.44316 79.7096 -14.067 -2.64236 -80.4117 -34.1442 -5.77981 20.0073 19.1236 88.7561 -19.1073 -3.73612 -17.0122 175.197 -25.3414 1.17705 -0.85637 2.03292 17.8619 1.2944 90 6.36111e-015 3.18055e-015 -31.0878 -1.86093 176.24 -27.9919 -0.340379 0.453693 -2.22651 -14.6329 -3.20042 90 1.03368e-014 1.27222e-014 
23.6545 88.7217 56.102 -94.2544 -39.7591 176.831 2.20467 3.28564 -1.59105 4.51096 6.50667 -3.31565 4.51095 6.50666 -3.31566 -10.6158 9.00297 -4.22039 71.8421 18.664 -17.7191 -170.029 9.82152 -89.3089 -14.4985 8.4681 85.4926 -23.5953 2.59368 -14.9969 11.4501 -83.7932 13.8371 -169.907 8.21468 79.3126 -15.7291 -1.17071 -80.9055 -33.7313 -5.6386 19.8003 12.9036 88.1983 -12.8672 -4.83008 -15.1809 174.229 -25.7397 1.17706 -0.820471 1.04856 16.8404 1.38576 90 1.59028e-015 -3.97569e-016 -29.8784 -1.25822 176.109 -32.451 -0.320883 0.416461 0.992435 -6.62606 -1.57624 90 1.59028e-015 -0 
21.8833 89.1183 57.2538 -93.0901 -36.9867 178.064 2.28076 3.3934 -1.67531 4.67221 6.71624 -3.49376 4.67219 6.71625 -3.49376 -10.841 9.01868 -4.69022 72.0563 18.9136 -17.0292 -169.716 9.67679 -89.7881 -13.5068 8.31703 84.9037 -23.5025 2.58414 -14.9307 12.0196 -83.8874 14.3635 -169.604 8.07919 78.8174 -17.6703 -0.658832 -81.4905 -34.046 -5.71367 19.9363 7.10267 86.9651 -7.04321 -5.76273 -13.5002 173.611 -26.0381 1.17811 -0.795208 -0.480851 16.6948 1.64192 90 1.59028e-015 2.38542e-015 -28.2031 -0.71464 175.845 -37.6151 -0.31744 0.337709 2.04027 -0.291217 -0.64051 90 -4.77083e-015 -0 
20.1696 89.4254 58.3623 -92.3073 -34.6467 178.823 2.21029 3.41478 -1.6492 4.53019 6.76227 -3.43823 4.53017 6.76227 -3.43823 -10.9993 8.90334 -4.95414 72.1553 18.8507 -16.3351 -169.569 9.40386 -90.0915 -12.5405 9.27092 85.084 -23.9676 2.6709 -15.1397 13.7239 -84.7546 16.1116 -169.436 7.90323 78.5966 -20.1831 -1.37497 -81.9959 -34.8842 -5.96173 20.3481 5.70619 86.3659 -5.64337 -6.73104 -11.6072 173.353 -26.4062 1.17726 -0.780124 -1.37584 16.5306 1.78902 90 3.18055e-015 2.18663e-015 -26.1118 -0.576481 175.521 -42.4595 -0.317822 0.228284 2.55656 2.29623 -0.324457 90 -3.18055e-015 -0 
18.6164 89.7435 59.6124 -91.685 -32.435 178.828 2.0775 3.44518 -1.48729 4.25547 6.83328 -3.10715 4.25545 6.83328 -3.10716 -10.8054 8.78015 -4.73948 71.4593 18.3461 -15.971 -169.833 9.29974 -89.886 -11.6279 9.90704 85.2213 -24.3587 2.747 -15.3181 15.5071 -85.3436 17.9242 -169.687 7.86572 78.8776 -21.4349 -1.9482 -82.7164 -35.5308 -6.1631 20.6708 4.68818 85.6261 -4.63054 -7.55072 -10.8412 173.791 -26.6996 1.17036 -0.796883 -2.20359 15.6142 1.88587 90 -1.59028e-015 -2.98177e-015 -23.4476 -0.993769 175.86 -46.395 -0.320503 0.117229 2.31864 3.61829 -0.130229 90 3.18055e-015 -3.18055e-015 
17.0518 89.9634 60.8054 -91.3016 -31.0977 178.827 1.91924 3.28377 -1.30827 3.92277 6.52136 -2.73268 3.92277 6.52133 -2.7327 -10.4276 8.61589 -4.92407 70.6963 18.1565 -15.2273 -170.235 9.08468 -90.0375 -11.6303 10.6218 85.474 -24.7205 2.80545 -15.4832 17.4628 -85.9989 19.8979 -170.07 7.7102 78.7916 -22.0922 -2.35131 -83.1994 -35.8599 -6.27121 20.8421 4.98826 85.9097 -4.93325 -8.40991 -8.5231 174.697 -26.8158 1.16181 -0.803296 -3.15949 16.915 2.26439 90 3.18055e-015 6.95746e-016 -20.4258 -2.0465 175.8 -49.7257 -0.326113 0.00730689 2.12872 3.88152 -0.0755818 90 0 -0 
15.4218 90.2337 62.0576 -91.164 -30.1909 178.866 1.79874 3.08775 -1.1949 3.66963 6.13623 -2.49165 3.66961 6.13622 -2.49167 -10.5297 8.32953 -5.12284 70.432 17.981 -14.1544 -170.154 8.72566 -90.2381 -12.1555 10.8577 85.3447 -24.9934 2.85115 -15.6074 16.2765 -85.6369 18.7244 -169.986 7.34826 78.6303 -21.8162 -2.29022 -83.6439 -35.9696 -6.30447 20.8973 4.97672 85.8892 -4.9187 -9.31568 -7.49499 175.202 -26.2329 1.15649 -0.84452 -4.9756 17.3664 2.75539 90 1.59028e-015 -5.96354e-016 -17.2514 -3.21946 175.671 -52.0138 -0.334562 -0.092896 1.14251 3.35618 -0.022827 90 -9.54166e-015 -1.59028e-014 
13.7723 90.4578 63.456 -91.2361 -29.4712 178.424 1.68647 2.89132 -1.02457 3.43102 5.75125 -2.13793 3.43101 5.75124 -2.13794 -10.4842 8.0629 -5.3589 69.743 17.7894 -13.0411 -170.203 8.41208 -90.4674 -12.6519 10.7723 85.0266 -25.4262 2.92488 -15.8239 16.0664 -85.4533 18.4258 -170.043 7.00593 78.4505 -21.1137 -2.13457 -84.1807 -36.2121 -6.38948 21.0287 5.63105 86.3726 -5.60277 -10.5521 -6.25322 176.179 -26.1055 1.13878 -0.879847 -5.34229 17.9563 2.98807 90 -1.59028e-015 7.95139e-016 -13.8375 -4.36005 176.322 -52.8708 -0.366059 -0.188471 0.0809317 1.72781 -0.15003 90 -6.36111e-015 9.54166e-015 
12.1038 90.6546 64.7988 -91.2736 -28.7793 177.878 1.59762 2.76611 -0.821817 3.24049 5.50839 -1.72346 3.24048 5.50836 -1.72347 -10.1436 7.66637 -5.5076 68.9204 17.1026 -12.1983 -170.546 8.06706 -90.5256 -13.2189 10.1091 84.3238 -25.4061 2.92281 -15.8125 15.5407 -84.5913 17.766 -170.423 6.58254 78.3977 -20.192 -2.14043 -84.4634 -36.1542 -6.37767 21.002 6.52127 86.8486 -6.49594 -12.0458 -6.17285 176.959 -26.2036 1.1251 -0.913285 -6.33866 17.9493 3.27093 90 0 1.2921e-015 -10.0703 -5.57331 177.208 -52.1493 -0.413913 -0.270129 -1.2575 -0.257948 -0.373213 90 3.18055e-015 -0 
10.2677 90.7671 66.2829 -91.4463 -28.2126 177.194 1.4823 2.58421 -0.620844 2.99713 5.15182 -1.31031 2.99713 5.1518 -1.31032 -9.84218 7.2591 -5.68047 68.6661 16.4822 -11.4945 -170.861 7.71836 -90.6379 -13.4606 9.46395 83.6764 -25.9518 3.01752 -16.1122 20.3051 -86.459 22.6622 -170.764 6.12561 78.3369 -19.9864 -2.43151 -84.7663 -36.0627 -6.34928 20.9654 6.89436 86.9799 -6.86879 -13.9549 -6.81903 177.845 -26.7982 1.10966 -0.931944 -7.32528 17.3552 3.43471 90 2.38542e-015 -2.48481e-016 -6.35714 -5.70117 178.738 -50.3245 -0.471779 -0.330163 -2.28841 -1.42192 -0.529649 90 3.18055e-015 7.95139e-015 
